<svg xmlns="http://www.w3.org/2000/svg" viewBox="0 0 231 231"><path d="M33.83,33.83a115.5,115.5,0,1,1,0,163.34,115.49,115.49,0,0,1,0-163.34Z" style="fill:#b3003e;"/><path d="m115.5 51.75a63.75 63.75 0 0 0-10.5 126.63v14.09a115.5 115.5 0 0 0-53.729 19.027 115.5 115.5 0 0 0 128.46 0 115.5 115.5 0 0 0-53.729-19.029v-14.084a63.75 63.75 0 0 0 53.25-62.881 63.75 63.75 0 0 0-63.65-63.75 63.75 63.75 0 0 0-0.09961 0z" style="fill:#542e02;"/><path class="clothes" d="M61.11,205.59l3.49,3.69-6.26,6.6A115.45,115.45,0,0,0,72,222.51v-22a115.19,115.19,0,0,0-10.85,5.1Z" style="fill-rule:evenodd;fill:#efedee;fill:#ec0033;fill:#ec0033;fill:#efedee;fill:#c9c9c9"/><path class="top" d="m124.22 13.61c-19.783 0-36.945 8.0887-39.695 24.106-15.332 0.23539-31.831 2.7712-41.663 15.782-6.0238 7.9604-7.0402 19.901-6.8476 31.724 0.46007 28.503 10.742 64.228-4.3012 89.714 16.584 5.7777 43.086 10.742 73.59 11.662v-8.6558c-1.851-0.35308-3.6592-0.78105-5.4353-1.2732-30.953-8.4632-50.672-36.635-47.259-68.669 1.5514-10.603 4.6221-19.665 10.025-27.69 5.3818-7.9925 13.267-15.717 23.892-21.41 0.40658 0.72757 1.9901 3.5843 2.4074 4.3012 7.5003 12.775 17.986 23.849 33.157 26.866 12.433 2.4609 23.849 3.4666 36.346 1.1555 4.2584-0.78106 10.667-2.3967 14.851-2.4181 14.861 33.404-1.0806 75.035-40.668 87.457-2.2255 0.70616-4.5258 1.316-6.8904 1.8189 0 2.707-0.0428 5.6493-0.0642 8.5274 23.603-0.72757 48.682-4.0444 72.874-11.234-18.521-32.152 0.81315-89.083-10.036-121.46-9.0731-26.973-38.85-40.315-64.282-40.305z" style="fill-rule:evenodd;fill:#FFCC00;fill:#FFCC00;fill:#FFCC00;fill:#ff0000;fill:#f9f9f9"/><path class="eyes" d="m129.31 114.14 20-5.37m-47.66 5.37-20-5.37" style="fill:none;stroke-linecap:round;stroke-linejoin:round;stroke-width:4.9998px;stroke:#1a1a1a"/><path class="mouth" d="m123.07 154.05a10.61 10.61 0 0 1-15 0.14l-0.14-0.14" style="fill:none;stroke-linecap:round;stroke-linejoin:round;stroke-width:6.3px;stroke:#000;stroke-linecap:round;stroke-linejoin:round;stroke-width:5.9998px;stroke:#4d4d4d"/></svg>